<svg xmlns="http://www.w3.org/2000/svg" preserveAspectRatio="xMinYMin meet" viewBox="0 0 77 21" enable-background="new 0 0 77 21"><path fill="#ffffff" d="M1 2.9c-.4-.3-.5-.7-.5-1.1 0-.4.1-.8.5-1.1.3-.3.7-.5 1.1-.5.4 0 .8.2 1.1.5.4.3.5.7.5 1.1 0 .4-.2.8-.5 1.1s-.7.5-1.1.5c-.4 0-.8-.1-1.1-.5zm2.4 14.6h-2.6v-12.1h2.6v12.1zm7.4-13.9c-.8 0-1.4.2-1.9.5s-.8.8-.8 1.5c0 .6.3 1.1.8 1.5.5.3 1.6.7 3.2 1.1 1.6.4 2.9.9 3.7 1.7.8.7 1.2 1.8 1.2 3.2s-.5 2.5-1.6 3.4c-1 .9-2.4 1.3-4.1 1.3-2.5 0-4.7-.9-6.6-2.6l1.7-2c1.6 1.4 3.3 2.1 5 2.1.9 0 1.6-.2 2.1-.6.5-.4.8-.9.8-1.5s-.2-1.1-.7-1.4c-.6-.5-1.4-.8-2.6-1.1-1.1-.2-2-.5-2.6-.7-.6-.3-1.2-.6-1.7-1-.9-.7-1.4-1.8-1.4-3.2 0-1.5.5-2.6 1.6-3.4 1.1-.8 2.4-1.2 4-1.2 1 0 2 .2 3 .5s1.9.8 2.6 1.4l-1.4 2c-.5-.4-1.1-.8-1.9-1-.8-.3-1.6-.5-2.4-.5zm14.2 1.6c1.6 0 3 .6 4.2 1.7 1.2 1.1 1.7 2.6 1.7 4.5s-.6 3.4-1.7 4.6c-1.1 1.2-2.5 1.8-4 1.8s-2.9-.7-4.1-2v5.3h-2.6v-15.7h2.6v2.1c1-1.6 2.3-2.3 3.9-2.3zm-3.9 6.2c0 1.2.3 2.1 1 2.8.7.7 1.5 1.1 2.6 1.1 1 0 1.9-.4 2.6-1.1.7-.7 1.1-1.7 1.1-2.8 0-1.2-.4-2.1-1.1-2.9-.7-.8-1.6-1.2-2.6-1.2s-1.9.4-2.6 1.2c-.7.8-1 1.8-1 2.9zm27.2-4v6.1c0 .6.2 1 .5 1.4.3.3.7.5 1.3.5.5 0 1.1-.3 1.6-.8l1 1.8c-.9.8-1.9 1.2-3 1.2s-2-.4-2.8-1.1c-.8-.8-1.2-1.8-1.2-3v-11.9h2.6v3.8h3.2v2h-3.2zm6.5 9.8c-.3-.3-.5-.7-.5-1.2s.2-.9.5-1.2c.3-.3.7-.5 1.2-.5s.9.2 1.2.5c.3.3.5.7.5 1.2s-.2.9-.5 1.2c-.3.3-.7.5-1.2.5s-.9-.2-1.2-.5zm19.3-11.8l-3.7 9.2-3.7-9.2h-5v-3.8h-2.6v11.9c0 1.3.4 2.3 1.2 3 .8.8 1.7 1.1 2.8 1.1 1.1 0 2.1-.4 3-1.2l-1-1.8c-.5.5-1 .8-1.6.8-.5 0-1-.2-1.3-.5-.3-.3-.5-.8-.5-1.4v-6.1h3.2l4 10.1h2.9l4.9-12.1h-2.6z"/><path fill="#ffffff" d="M38.3 5.3c-3.4 0-6.2 2.8-6.2 6.2 0 3.4 2.8 6.2 6.2 6.2 3.4 0 6.2-2.8 6.2-6.2 0-3.4-2.8-6.2-6.2-6.2zm-.8 9.4l-1.1.7c-.3.2-.6 0-.6-.4v-7c0-.3.3-.6.6-.4.1 0 .5.3 1.1.7v6.4zm2.4-1.5c-.6.4-1.2.7-1.7 1.1v-5.6c.5.3 1.2.7 1.7 1.1v3.4zm2.2-1.3l-1.5.9v-2.6l1.5.9c.3.2.3.6 0 .8z"/></svg>