<?xml version="1.0" encoding="utf-8"?>
<!-- Generator: Adobe Illustrator 22.0.0, SVG Export Plug-In . SVG Version: 6.00 Build 0)  -->
<svg version="1.1" id="Layer_1" xmlns="http://www.w3.org/2000/svg" xmlns:xlink="http://www.w3.org/1999/xlink" x="0px" y="0px"
	 viewBox="0 0 219.5 111" style="enable-background:new 0 0 219.5 111;" xml:space="preserve">
<style type="text/css">
	.st0{fill:#F2F2F2;}
	.st1{fill:none;}
	.st2{font-family:'Futura-Bold';}
	.st3{font-size:34.5px;}
</style>
<title>MHwideAsset 2</title>
<polyline class="st0" points="72,40 56,55 56,23 71,6.3 "/>
<polygon class="st0" points="107,70.4 71,70.4 71,6.3 89,0 107,6.3 "/>
<polygon class="st0" points="107,7 71,7 71,71.1 89,77.4 107,71.1 "/>
<polygon class="st0" points="36,70.4 0,70.4 0,6.3 18,0 36,6.3 "/>
<polygon class="st0" points="36,7 0,7 0,71.1 18,77.4 36,71.1 "/>
<polyline class="st0" points="35,40 51,55 51,23 36,6.3 "/>
<rect x="147" y="22" class="st0" width="16" height="33"/>
<rect x="168" y="22" class="st0" width="16" height="33"/>
<polygon class="st0" points="148,70.4 112,70.4 112,6.3 130,0 148,6.3 "/>
<polygon class="st0" points="148,7 112,7 112,71.1 130,77.4 148,71.1 "/>
<polygon class="st0" points="219,70.4 183,70.4 183,6.3 201,0 219,6.3 "/>
<polygon class="st0" points="219,7 183,7 183,71.1 201,77.4 219,71.1 "/>
<polygon class="st0" points="36,6.3 26.3,40.7 45.6,40.7 "/>
<polygon class="st0" points="71,6.5 61.3,40.8 80.7,40.8 "/>
<rect x="-1" y="81.8" class="st1" width="223.8" height="49"/>
<text transform="matrix(1 0 0 1 -1.0073 110.4639)" class="st0 st2 st3">METALHEAD</text>
</svg>
