<svg xmlns="http://www.w3.org/2000/svg" viewBox="0 0 240.98 77.4"><defs><style>.cls-1{fill:#f2f2f2;}</style></defs><title>MHwideAsset 9</title><g id="Layer_2" data-name="Layer 2"><g id="Layer_1-2" data-name="Layer 1"><polyline class="cls-1" points="77 40 61 55 61 23 77 6.31"/><polygon class="cls-1" points="112.98 70.4 77 70.4 77 6.31 95 0 112.98 6.31 112.98 70.4"/><polygon class="cls-1" points="112.98 7 77 7 77 71.09 95 77.4 112.98 71.09 112.98 7"/><polygon class="cls-1" points="35.98 70.4 0 70.4 0 6.31 18 0 35.98 6.31 35.98 70.4"/><polygon class="cls-1" points="35.98 7 0 7 0 71.09 18 77.4 35.98 71.09 35.98 7"/><polyline class="cls-1" points="36 40 52 55 52 23 36 6.31"/><rect class="cls-1" x="164" y="22" width="16" height="33"/><rect class="cls-1" x="189" y="22" width="16" height="33"/><polygon class="cls-1" points="163.98 70.4 128 70.4 128 6.31 146 0 163.98 6.31 163.98 70.4"/><polygon class="cls-1" points="163.98 7 128 7 128 71.09 146 77.4 163.98 71.09 163.98 7"/><polygon class="cls-1" points="240.98 70.4 205 70.4 205 6.31 223 0 240.98 6.31 240.98 70.4"/><polygon class="cls-1" points="240.98 7 205 7 205 71.09 223 77.4 240.98 71.09 240.98 7"/></g></g></svg>