<?xml version="1.0" encoding="utf-8"?>
<!-- Generator: Adobe Illustrator 22.0.0, SVG Export Plug-In . SVG Version: 6.00 Build 0)  -->
<svg version="1.1" id="Layer_1" xmlns="http://www.w3.org/2000/svg" xmlns:xlink="http://www.w3.org/1999/xlink" x="0px" y="0px"
	 viewBox="0 0 66.9 82.6" style="enable-background:new 0 0 66.9 82.6;" xml:space="preserve">
<style type="text/css">
	.st0{fill:#FFFFFF;}
</style>
<g id="Background">
</g>
<g id="T-Mobile">
	<g>
		<polygon class="st0" points="1,54.3 17.1,54.3 17.1,38.2 1,38.2 		"/>
		<path class="st0" d="M39.7,5.4c13.1,0.2,20.9,9,22.1,24.9l4.3-0.7l-0.8-28H1.8L1,29.6l4.2,0.7c1.2-16,8.9-24.7,22.1-24.9v58.7
			c0,10.7-1.8,12.4-13.3,12.5v4.5h39.1v-4.5c-11.5-0.1-13.3-1.8-13.3-12.5L39.7,5.4L39.7,5.4z"/>
		<polygon class="st0" points="49.8,54.3 65.9,54.3 65.9,38.2 49.8,38.2 		"/>
	</g>
</g>
</svg>
