<?xml version="1.0" encoding="utf-8"?>
<!-- Generator: Adobe Illustrator 22.0.0, SVG Export Plug-In . SVG Version: 6.00 Build 0)  -->
<svg version="1.1" xmlns="http://www.w3.org/2000/svg" xmlns:xlink="http://www.w3.org/1999/xlink" x="0px" y="0px"
	 viewBox="0 0 514 82.6" style="enable-background:new 0 0 514 82.6;" xml:space="preserve">
<style type="text/css">
	.st0{fill:#FFFFFF;}
	.st1{fill-rule:evenodd;clip-rule:evenodd;fill:#FFFFFF;}
</style>
<g id="Background">
</g>
<g id="T-Mobile">
	<g>
		<polygon class="st0" points="1,54.3 17.1,54.3 17.1,38.2 1,38.2 1,54.3 		"/>
		<path class="st0" d="M39.7,5.4c13.1,0.2,20.9,9,22.1,24.9l4.3-0.7l-0.8-28H1.8L1,29.6l4.2,0.7c1.2-16,8.9-24.7,22.1-24.9v58.7
			c0,10.7-1.8,12.4-13.3,12.5v4.5h39.1v-4.5c-11.5-0.1-13.3-1.8-13.3-12.5V5.4L39.7,5.4z"/>
		<polygon class="st0" points="49.8,54.3 65.9,54.3 65.9,38.2 49.8,38.2 49.8,54.3 		"/>
		<polygon class="st0" points="98.1,54.3 114.2,54.3 114.2,38.2 98.1,38.2 98.1,54.3 		"/>
		<polygon class="st0" points="146.3,54.3 162.4,54.3 162.4,38.2 146.3,38.2 146.3,54.3 		"/>
		<path class="st0" d="M206.8,81.1l20.3-69.6v54.7c0,6-0.3,8.2-1.7,9.5c-1,1-3.5,1.7-6.1,1.7h-1v3.7H247v-3.7h-1.5
			c-2.6,0-5.1-0.7-6.1-1.7c-1.4-1.4-1.7-3.6-1.7-9.5V19.4c0-6,0.3-8.2,1.7-9.5c1.1-1,3.4-1.7,6.1-1.7h1.5V4.4h-22.3l-16.8,56.4
			L191.5,4.4h-22.2v3.7h2.1c6.1,0,7.2,1.4,7.2,9.1v44.5c0,7.1-0.3,9.9-1.4,12.1c-1.2,2.2-3.6,3.7-6.1,3.7h-1.8v3.7H193v-3.7h-1.5
			c-3,0-5.4-1.3-6.8-3.6c-1.4-2.3-1.7-4.4-1.7-12.2V11.5l20.2,69.6H206.8L206.8,81.1z"/>
		<path class="st1" d="M271.7,26.6c-14.3,0-23.6,11-23.6,28.2c0,16.7,9.3,27.9,23.2,27.9c14,0,23.3-11.3,23.3-28
			C294.7,38,285.4,26.6,271.7,26.6L271.7,26.6z M271.3,30.3c4.1,0,7.7,2.5,9.7,6.9c1.8,4,2.6,9.5,2.6,17.5c0,16.3-4,24.4-12.2,24.4
			c-8.2,0-12.1-8-12.1-24.6c0-7.7,0.8-13.1,2.6-17.2C263.8,33.1,267.5,30.3,271.3,30.3L271.3,30.3z"/>
		<path class="st1" d="M313.8,3.6l-16.3,0.8V8h0.8c4.8,0,5.9,1.6,5.9,9.2v52.5c0,6.7-0.2,8.5-1.1,11.4h3.8c2.9-4.6,3.6-5.4,4.7-5.4
			c0.6,0,1.2,0.2,2,0.9c5.6,4.6,8,5.6,13.2,5.6c12.4,0,21.4-12,21.4-28.6c0-15.9-8.3-26.6-20.7-26.6c-6.4,0-11.2,3-13.6,8.6V3.6
			L313.8,3.6z M325.7,31.1c7.4,0,11.1,7.8,11.1,23c0,15.9-3.9,24.1-11.4,24.1c-8.3,0-12.6-8.4-12.6-23.8c0-7.6,1-13,3.4-17
			C318.5,33.5,322.2,31.1,325.7,31.1L325.7,31.1z"/>
		<path class="st1" d="M369.3,27.4l-16.8,0.8v3.6h1.3c4.8,0,5.9,1.6,5.9,9.2v27.2c0,7.6-1,9.3-5.9,9.3h-1.8v3.6H377v-3.6h-1.8
			c-4.8,0-5.9-1.6-5.9-9.3V27.4L369.3,27.4z M363.8,3.9c-3.6,0-6.4,2.8-6.4,6.3c0,3.5,2.9,6.3,6.3,6.3c3.6,0,6.3-2.8,6.3-6.3
			C370,6.7,367.2,3.9,363.8,3.9L363.8,3.9z"/>
		<path class="st0" d="M398.4,3.6l-16.8,0.8V8h1.3c4.8,0,5.9,1.6,5.9,9.2v51c0,7.7-1,9.3-5.9,9.3H381v3.6h25.1v-3.6h-1.8
			c-4.8,0-5.9-1.6-5.9-9.3V3.6L398.4,3.6z"/>
		<path class="st1" d="M451.8,54.3c-0.6-17-8.9-27.7-21.4-27.7c-12.1,0-20.8,11.6-20.8,27.7c0,17.4,8.6,28.4,22,28.4
			c8.6,0,14.6-4.5,19.5-14.5l-3.5-1.8c-4,8.5-8,11.8-14.3,11.8c-9.1,0-13-7.1-13.1-23.9H451.8L451.8,54.3z M420.4,50.3
			c0.1-12.1,4.1-19.7,10.6-19.7c6.4,0,10.2,7.4,10.1,19.7H420.4L420.4,50.3z"/>
		<path class="st0" d="M485.4,33.5c-1-0.9-1.4-2.1-1.4-3.4c0-1.3,0.5-2.4,1.4-3.4c0.9-0.9,2.1-1.4,3.4-1.4c1.3,0,2.5,0.5,3.4,1.4
			c0.9,0.9,1.4,2.1,1.4,3.4c0,1.3-0.5,2.5-1.4,3.4c-0.9,0.9-2.1,1.4-3.4,1.4C487.5,34.9,486.4,34.4,485.4,33.5z M484.7,25.9
			c-1.1,1.2-1.7,2.5-1.7,4.2c0,1.6,0.6,3,1.7,4.2c1.1,1.2,2.5,1.7,4.1,1.7c1.6,0,3-0.6,4.2-1.7c1.1-1.1,1.7-2.5,1.7-4.2
			c0-1.6-0.6-3-1.7-4.1c-1.2-1.1-2.5-1.7-4.2-1.7C487.2,24.2,485.8,24.8,484.7,25.9z M489.9,30.4c0.8-0.3,1.2-0.9,1.2-1.7
			c0-0.6-0.2-1-0.6-1.4c-0.4-0.3-1-0.5-1.6-0.5h-2v6.3h1.2v-2.5h0.7l1.7,2.5h1.4L489.9,30.4z M488,27.9h0.7c0.7,0,1.1,0.3,1.1,0.9
			c0,0.6-0.4,0.9-1.2,0.9H488V27.9z"/>
		<polygon class="st0" points="465.5,54.3 481.6,54.3 481.6,38.2 465.5,38.2 465.5,54.3 		"/>
	</g>
</g>
</svg>
